<svg preserveAspectRatio="none" width="100%" height="100%" overflow="visible" style="display: block;" viewBox="0 0 19.95 19" fill="none" xmlns="http://www.w3.org/2000/svg">
<g id="Container">
<path id="Icon" d="M3 15H15L11.925 10.9C11.7417 10.8667 11.5542 10.825 11.3625 10.775C11.1708 10.725 10.9833 10.6667 10.8 10.6L8.25 14L6 11L3 15V15M2 19C1.45 19 0.979167 18.8042 0.5875 18.4125C0.195833 18.0208 0 17.55 0 17V3C0 2.45 0.195833 1.97917 0.5875 1.5875C0.979167 1.19583 1.45 1 2 1H7C7 1.3 7 1.61667 7 1.95C7 2.28333 7 2.63333 7 3H2V3V3V17V17V17H16V17V17V11.675L18 13.675V17C18 17.55 17.8042 18.0208 17.4125 18.4125C17.0208 18.8042 16.55 19 16 19H2V19M9 10V10V10V10V10V10V10V10V10V10V10V10V10V10V10V10V10V10V10M18.55 11.4L15.45 8.3C15.1 8.53333 14.725 8.70833 14.325 8.825C13.925 8.94167 13.5 9 13.05 9C11.8167 9 10.7667 8.5625 9.9 7.6875C9.03333 6.8125 8.6 5.75 8.6 4.5C8.6 3.25 9.0375 2.1875 9.9125 1.3125C10.7875 0.4375 11.85 0 13.1 0C14.35 0 15.4125 0.4375 16.2875 1.3125C17.1625 2.1875 17.6 3.25 17.6 4.5C17.6 4.95 17.5333 5.38333 17.4 5.8C17.2667 6.21667 17.1 6.6 16.9 6.95L19.95 10L18.55 11.4V11.4M13.1 7C13.8 7 14.3917 6.75833 14.875 6.275C15.3583 5.79167 15.6 5.2 15.6 4.5C15.6 3.8 15.3583 3.20833 14.875 2.725C14.3917 2.24167 13.8 2 13.1 2C12.4 2 11.8083 2.24167 11.325 2.725C10.8417 3.20833 10.6 3.8 10.6 4.5C10.6 5.2 10.8417 5.79167 11.325 6.275C11.8083 6.75833 12.4 7 13.1 7V7" fill="var(--fill-0, black)"/>
</g>
</svg>
