<svg preserveAspectRatio="none" width="100%" height="100%" overflow="visible" style="display: block;" viewBox="0 0 45.3212 45.3128" fill="none" xmlns="http://www.w3.org/2000/svg">
<g id="Container">
<path id="Icon" d="M6.4 38.9128C4.4 36.9128 2.83333 34.6017 1.7 31.9795C0.566667 29.3573 0 26.6462 0 23.8462C0 21.0462 0.533333 18.2795 1.6 15.5462C2.66667 12.8128 4.4 10.2462 6.8 7.84615C8.35556 6.2906 10.2778 4.95726 12.5667 3.84615C14.8556 2.73504 17.5667 1.85726 20.7 1.21282C23.8333 0.568376 27.4111 0.179487 31.4333 0.0461538C35.4556 -0.0871795 39.9556 0.0683761 44.9333 0.512821C45.2889 5.22393 45.4 9.55726 45.2667 13.5128C45.1333 17.4684 44.7667 21.035 44.1667 24.2128C43.5667 27.3906 42.7222 30.1684 41.6333 32.5462C40.5444 34.9239 39.2 36.9128 37.6 38.5128C35.2444 40.8684 32.7444 42.5906 30.1 43.6795C27.4556 44.7684 24.7556 45.3128 22 45.3128C19.1111 45.3128 16.2889 44.7462 13.5333 43.6128C10.7778 42.4795 8.4 40.9128 6.4 38.9128V38.9128M13.8667 37.8462C15.1556 38.6017 16.4778 39.1462 17.8333 39.4795C19.1889 39.8128 20.5778 39.9795 22 39.9795C24.0444 39.9795 26.0667 39.5684 28.0667 38.7462C30.0667 37.9239 31.9778 36.6017 33.8 34.7795C34.6 33.9795 35.4111 32.8573 36.2333 31.4128C37.0556 29.9684 37.7667 28.0795 38.3667 25.7462C38.9667 23.4128 39.4222 20.5906 39.7333 17.2795C40.0444 13.9684 40.0889 10.0239 39.8667 5.44615C37.6889 5.35726 35.2333 5.32393 32.5 5.34615C29.7667 5.36838 27.0444 5.57949 24.3333 5.97949C21.6222 6.37949 19.0444 7.02393 16.6 7.91282C14.1556 8.80171 12.1556 10.0239 10.6 11.5795C8.6 13.5795 7.22222 15.5573 6.46667 17.5128C5.71111 19.4684 5.33333 21.3573 5.33333 23.1795C5.33333 25.8017 5.83333 28.1017 6.83333 30.0795C7.83333 32.0573 8.71111 33.4462 9.46667 34.2462C11.3333 30.6906 13.8 27.2795 16.8667 24.0128C19.9333 20.7462 23.5111 18.0684 27.6 15.9795C24.4 18.7795 21.6111 21.9462 19.2333 25.4795C16.8556 29.0128 15.0667 33.135 13.8667 37.8462V37.8462M13.8667 37.8462V37.8462V37.8462V37.8462V37.8462V37.8462V37.8462V37.8462V37.8462V37.8462V37.8462V37.8462M13.8667 37.8462V37.8462V37.8462V37.8462V37.8462V37.8462V37.8462V37.8462V37.8462V37.8462V37.8462V37.8462V37.8462V37.8462V37.8462V37.8462V37.8462V37.8462V37.8462V37.8462V37.8462V37.8462" fill="var(--fill-0, black)"/>
</g>
</svg>
